<svg width="18" height="18" viewBox="0 0 18 18" fill="none" xmlns="http://www.w3.org/2000/svg">
<path d="M9.89987 8.09998H8.09985V13.5H9.89987V8.09998Z" fill="#5663FF"/>
<path d="M8.99998 0C4.02751 0 0 4.02751 0 8.99998C0 13.9724 4.02751 18 8.99998 18C13.9724 18 18 13.9725 18 8.99998C18 4.02747 13.9725 0 8.99998 0ZM8.99998 16.2C5.03098 16.2 1.79997 12.969 1.79997 8.99998C1.79997 5.03098 5.03098 1.80001 8.99998 1.80001C12.969 1.80001 16.2 5.03098 16.2 8.99998C16.2 12.969 12.969 16.2 8.99998 16.2Z" fill="#5663FF"/>
<path d="M9.89987 4.5H8.09985V6.30002H9.89987V4.5Z" fill="#5663FF"/>
</svg>
