<svg width="273" height="170" viewBox="0 0 273 170" fill="none" xmlns="http://www.w3.org/2000/svg">
<path d="M128.67 90L90.67 87.75C90.67 87.75 70.67 106.35 72.45 122.27C74.23 138.19 78.73 139.68 78.73 139.68L57.84 142.42C55.5414 144.23 53.8069 146.659 52.84 149.42C51.1 154.15 49.11 168.58 49.11 168.58H157.03C179.42 168.58 186.13 165.84 187.38 154.9C188.63 143.96 128.67 90 128.67 90Z" fill="url(#paint0_linear)"/>
<path d="M109.2 140.6H109.11C98.3505 139.269 87.4813 139.068 76.68 140C76.5533 140.03 76.4204 140.02 76.3 139.97C76.1797 139.92 76.078 139.834 76.0094 139.724C75.9408 139.613 75.9087 139.483 75.9178 139.354C75.9269 139.224 75.9767 139.1 76.06 139C76.62 138.37 95.15 137.4 109.28 139.39C109.442 139.401 109.593 139.475 109.7 139.597C109.807 139.719 109.861 139.878 109.85 140.04C109.839 140.202 109.765 140.353 109.643 140.46C109.521 140.567 109.362 140.621 109.2 140.61V140.6Z" fill="white"/>
<path d="M62.96 166.16H62.91C62.8298 166.154 62.7516 166.132 62.68 166.095C62.6084 166.058 62.5447 166.008 62.4927 165.947C62.4406 165.885 62.4012 165.814 62.3767 165.738C62.3522 165.661 62.3431 165.58 62.35 165.5C62.35 165.38 62.61 162.42 63.61 156.97C64.6108 152.553 66.0444 148.246 67.89 144.11C67.9214 144.037 67.9673 143.97 68.0248 143.915C68.0822 143.859 68.1502 143.816 68.2248 143.787C68.2993 143.758 68.3788 143.744 68.4587 143.746C68.5386 143.749 68.6172 143.767 68.69 143.8C68.7638 143.832 68.8305 143.879 68.8861 143.938C68.9417 143.996 68.9852 144.065 69.014 144.14C69.0429 144.216 69.0565 144.296 69.054 144.377C69.0516 144.457 69.0333 144.537 69 144.61C69 144.68 65.78 151.84 64.81 157.18C63.84 162.52 63.57 165.57 63.56 165.6C63.5498 165.752 63.4822 165.895 63.3707 165.999C63.2593 166.103 63.1124 166.16 62.96 166.16Z" fill="white"/>
<path d="M88.01 106.49C86.3222 106.502 84.6404 106.287 83.01 105.85C82.9269 105.833 82.8483 105.798 82.7793 105.748C82.7103 105.699 82.6524 105.635 82.6093 105.562C82.5663 105.489 82.539 105.408 82.5292 105.323C82.5194 105.239 82.5274 105.153 82.5526 105.072C82.5777 104.991 82.6196 104.916 82.6754 104.852C82.7312 104.788 82.7998 104.736 82.8768 104.7C82.9538 104.664 83.0374 104.645 83.1223 104.643C83.2072 104.641 83.2916 104.657 83.37 104.69C86.5292 105.5 89.8476 105.448 92.98 104.54C97.8 103.03 99.14 101.54 99.15 101.54C99.2544 101.42 99.4019 101.345 99.5607 101.332C99.7196 101.319 99.8773 101.368 100 101.47C100.062 101.52 100.114 101.581 100.152 101.651C100.19 101.72 100.215 101.797 100.223 101.876C100.231 101.955 100.224 102.035 100.201 102.111C100.178 102.188 100.14 102.259 100.09 102.32C100.03 102.39 98.59 104.09 93.35 105.74C91.6185 106.26 89.8178 106.513 88.01 106.49Z" fill="white"/>
<path d="M43.3 158.6C43.3 158.6 43.3 158.54 43.3 158.45C43.041 157.05 42.5617 155.7 41.88 154.45C41.2306 153.264 40.3659 152.209 39.33 151.34C39.0386 151.029 38.6873 150.78 38.2972 150.608C37.9071 150.436 37.4863 150.345 37.06 150.34L29.32 151.83C28.61 151.94 28.2 152.38 27.89 153.27C27.8494 153.417 27.7799 153.555 27.6855 153.675C27.591 153.796 27.4736 153.896 27.34 153.97C26.25 154.56 23.12 153.03 23.12 153.03L11.12 155.35C6.03999 156.35 2.62 159.52 0.749996 161.35C0.586531 161.497 0.46994 161.689 0.41476 161.902C0.35958 162.114 0.368249 162.339 0.439685 162.547C0.511122 162.755 0.642168 162.937 0.81649 163.071C0.990811 163.205 1.2007 163.284 1.41999 163.3C2.98999 163.35 5.16999 163.38 7.26999 163.23C10.5019 163.118 13.7376 163.248 16.95 163.62V163.57C18.224 162.066 19.7799 160.826 21.53 159.92C23.65 158.92 29.53 159.76 34.41 160.92C39.29 162.08 43.3 158.6 43.3 158.6Z" fill="#151E27"/>
<path d="M52.02 155C49.2889 156.505 46.384 157.67 43.37 158.47H43.28C43.28 158.56 43.28 158.62 43.28 158.62C43.28 158.62 39.28 162.12 34.47 160.95C29.66 159.78 23.71 158.95 21.59 159.95C19.8399 160.856 18.284 162.096 17.01 163.6C23.49 164.1 41.25 165.46 43.35 165.53C45.78 165.62 48.1 165.85 50.13 165.96C50.42 164.51 52.04 155.64 52.02 155Z" fill="#EF6744"/>
<path d="M49.12 168.51C49.12 168.51 50.96 160.51 51.18 157.51C51.4 154.51 52.48 148.91 53.97 146.17C54.7471 144.552 55.9115 143.15 57.36 142.09" stroke="white" stroke-linecap="round" stroke-linejoin="round"/>
<path d="M151.42 9.27C150.59 6.56 147.23 4.98 142.73 4.75C140.42 1.91 135.88 0.749999 131.37 2.1C126.86 3.45 123.64 7.1 123.37 10.85C120.07 13.49 118.37 16.53 119.14 19.11C119.389 19.875 119.83 20.5636 120.42 21.11C120.771 21.2015 121.129 21.2617 121.49 21.29C125.37 21.53 127.96 16.11 131.76 13.29C135.56 10.47 142.19 10.62 145.1 12.89C146.427 13.9867 147.283 15.551 147.49 17.26C150.64 14.69 152.21 11.77 151.42 9.27Z" fill="#2755A3"/>
<path d="M147.56 17.26C147.353 15.551 146.497 13.9867 145.17 12.89C142.26 10.62 135.63 10.46 131.83 13.29C128.03 16.12 125.44 21.54 121.56 21.29C121.199 21.2617 120.841 21.2015 120.49 21.11C116.69 20.19 111.55 16.22 104.49 19.32C96.72 22.72 96.36 32.74 93.61 35.65C90.86 38.56 82.48 39.65 80.25 45.06C78.02 50.47 78.78 61.41 92.93 62.06C92.93 57.52 93.16 53.28 93.51 49.72C94.8 36.38 104.91 32.42 110.57 32.09C115.037 32.0007 119.504 32.2985 123.92 32.98C124.769 34.2102 126.027 35.0995 127.47 35.49C128.217 35.6955 129.002 35.722 129.761 35.5674C130.521 35.4127 131.233 35.0813 131.84 34.6C135.409 35.1212 138.769 36.6042 141.56 38.89C142.251 39.4626 142.89 40.0951 143.47 40.78C143.36 40.29 142.81 36.56 144.13 34.84C145.45 33.12 146.8 32.09 146.64 29.02C146.48 25.95 146.4 24.09 147.2 21.82C147.679 20.3498 147.802 18.7871 147.56 17.26Z" fill="#151E27"/>
<path d="M127.42 35.53C128.146 35.7302 128.909 35.7613 129.649 35.6209C130.389 35.4805 131.087 35.1723 131.69 34.72C132.3 33.19 133.03 31.54 133.03 31.54L133.76 32.21C133.989 32.4184 134.266 32.5668 134.566 32.6418C134.866 32.7168 135.18 32.7162 135.48 32.64C137.592 32.0827 139.494 30.9179 140.95 29.29C143.18 26.61 143.86 21.83 143.86 21.83L140.22 20.48C139.364 20.157 138.431 20.0968 137.54 20.307C136.649 20.5172 135.842 20.9883 135.22 21.66L123.95 33V33.06C124.784 34.2624 126.011 35.136 127.42 35.53Z" fill="#EF6744"/>
<path d="M139.42 28.65C139.36 28.6487 139.301 28.6314 139.25 28.6L138.25 27.94C138.217 27.9177 138.189 27.8891 138.167 27.8559C138.145 27.8227 138.13 27.7856 138.123 27.7466C138.116 27.7076 138.116 27.6675 138.124 27.6286C138.132 27.5897 138.148 27.5528 138.17 27.52C138.192 27.4872 138.221 27.4591 138.254 27.4373C138.287 27.4155 138.324 27.4004 138.363 27.393C138.402 27.3856 138.443 27.3859 138.481 27.394C138.52 27.402 138.557 27.4177 138.59 27.44L139.28 27.9L140.28 25.83C140.296 25.7926 140.319 25.7589 140.348 25.7308C140.378 25.7027 140.412 25.6808 140.45 25.6665C140.488 25.6522 140.529 25.6458 140.569 25.6476C140.61 25.6494 140.65 25.6594 140.686 25.677C140.723 25.6946 140.755 25.7194 140.782 25.75C140.809 25.7806 140.829 25.8162 140.842 25.8549C140.854 25.8935 140.859 25.9342 140.855 25.9746C140.851 26.0151 140.839 26.0543 140.82 26.09L139.66 28.48C139.642 28.5187 139.615 28.553 139.582 28.5806C139.55 28.6082 139.511 28.6284 139.47 28.64L139.42 28.65Z" fill="black"/>
<path d="M137.42 30C137.384 30.0103 137.346 30.0103 137.31 30C136.11 29.53 136.23 28.75 136.24 28.72C136.247 28.6813 136.262 28.6443 136.283 28.6113C136.305 28.5782 136.333 28.5498 136.365 28.5275C136.398 28.5052 136.434 28.4895 136.473 28.4814C136.511 28.4732 136.551 28.4728 136.59 28.48C136.668 28.4923 136.738 28.535 136.785 28.5986C136.832 28.6623 136.851 28.7418 136.84 28.82C136.84 28.94 136.97 29.21 137.53 29.44C137.568 29.4532 137.602 29.474 137.632 29.5012C137.661 29.5283 137.684 29.5613 137.7 29.5979C137.716 29.6345 137.724 29.674 137.724 29.714C137.724 29.7539 137.716 29.7934 137.7 29.83C137.675 29.8824 137.635 29.9264 137.585 29.9566C137.536 29.9868 137.478 30.0019 137.42 30Z" fill="black"/>
<path d="M138.99 24.83C138.928 24.8301 138.868 24.8089 138.82 24.77L137.77 24.04C137.719 23.9884 137.687 23.9205 137.681 23.848C137.675 23.7755 137.694 23.7031 137.736 23.6435C137.777 23.5839 137.839 23.5409 137.909 23.522C137.979 23.503 138.054 23.5094 138.12 23.54L139.17 24.28C139.203 24.302 139.232 24.3306 139.254 24.3641C139.276 24.3976 139.29 24.4353 139.297 24.4747C139.303 24.5141 139.302 24.5545 139.292 24.5933C139.282 24.6321 139.265 24.6684 139.24 24.7C139.212 24.7399 139.174 24.7725 139.131 24.795C139.087 24.8176 139.039 24.8296 138.99 24.83Z" fill="black"/>
<path d="M143.23 137.42H174.42V158C174.42 160.761 173.323 163.409 171.371 165.361C169.419 167.313 166.771 168.41 164.01 168.41H153.64C150.879 168.41 148.231 167.313 146.279 165.361C144.327 163.409 143.23 160.761 143.23 158V137.42Z" fill="#EF6744"/>
<path d="M174.41 141.59H143.23V142.81H174.41V141.59Z" fill="#2755A3"/>
<path d="M174.41 145.57H143.23V146.79H174.41V145.57Z" fill="#2755A3"/>
<path d="M147.62 93.76C149.38 99.76 153 100.92 157.15 103.34C157.741 103.697 158.271 104.146 158.72 104.67C159.19 96.72 159.6 82.92 157.65 72.74C155.11 59.45 148.35 46.42 143.46 40.82C142.88 40.1351 142.241 39.5026 141.55 38.93C138.759 36.6442 135.399 35.1612 131.83 34.64L131.73 34.72C131.127 35.1723 130.429 35.4805 129.689 35.6209C128.949 35.7613 128.186 35.7302 127.46 35.53C126.017 35.1453 124.758 34.2589 123.91 33.03C119.494 32.3485 115.027 32.0507 110.56 32.14C104.9 32.47 94.79 36.43 93.5 49.77C93.15 53.33 92.93 57.57 92.92 62.11C92.8958 67.7618 93.2936 73.4074 94.11 79C93.69 80.73 93.22 82.6 92.92 83.57C92.3822 85.0726 91.6203 86.4852 90.66 87.76C92.6298 89.3711 94.84 90.6634 97.21 91.59C98.1339 94.1943 99.3412 96.6893 100.81 99.03C106.111 107.171 112.384 114.636 119.49 121.26L119.58 121.2L129.93 114.9C129.93 114.9 121.7 99.71 121.06 97.29C120.405 95.1574 119.637 93.0611 118.76 91.01L128.87 90.29C128.87 90.29 130.56 82.15 132.33 79.58C133.415 77.9887 134.378 76.3172 135.21 74.58C138.998 77.9044 141.605 82.3678 142.64 87.3L142.76 87.97C145.081 89.182 146.829 91.2637 147.62 93.76Z" fill="white"/>
<path d="M160.89 120.48C162.67 115.12 161.68 108.07 158.72 104.67C158.271 104.146 157.741 103.697 157.15 103.34C153 100.92 149.38 99.71 147.62 93.76C146.852 91.2483 145.118 89.1442 142.8 87.91C140.431 86.6119 137.66 86.2548 135.04 86.91C129.51 88.29 128.89 99.4 133.97 102.03C140.21 105.24 140.05 107.03 137.29 113.63C134.53 120.23 144.71 127.5 151.62 127.5C155.94 127.5 158.37 133.17 159.62 137.42H162.01C160.89 132.53 159.51 124.59 160.89 120.48Z" fill="#2755A3"/>
<path d="M183.19 105.44C181.257 104.891 179.186 105.103 177.404 106.033C175.623 106.963 174.265 108.54 173.61 110.44C172.21 114.9 169.46 115.76 166.3 117.52C163.14 119.28 161.77 125.66 163.24 130.37C163.79 132.14 163.65 134.82 163.24 137.48H166.78C167.171 136.974 167.67 136.561 168.241 136.272C168.812 135.983 169.44 135.825 170.08 135.81C175.29 135.91 183.08 130.56 181.08 125.57C179.08 120.58 179 119.22 183.75 116.88C187.64 114.94 187.33 106.56 183.19 105.44Z" fill="#2755A3"/>
<path d="M155.23 137.42H157.23C156.61 134.54 155.03 131.16 151.15 129.62C143.66 126.62 135.15 128.16 130.54 130.34C125.93 132.52 123.69 134.06 123.39 135.68C123.24 136.49 124.22 138.28 127.67 137.92C131.12 137.56 134.06 133.7 136.09 133.31C138.12 132.92 137.18 135.59 142.09 136.53C147 137.47 149.48 133.99 151.78 134.17C153.42 134.31 154.61 135.83 155.23 137.42Z" fill="#2755A3"/>
<path d="M119.55 121.24C121.398 124.344 123.655 127.186 126.26 129.69C130.59 133.83 134.37 134.89 135.26 134.89C137.92 134.89 137.59 133.48 137.59 133.48C137.59 133.48 139.45 133.09 139.78 131.75C140.01 130.75 138.69 130.02 138.69 130.02C138.69 130.02 139.84 129.47 139.62 128.41C139.4 127.35 135.5 126.41 134.12 125.06C133.316 124.283 132.586 123.433 131.94 122.52C131.94 122.52 134.83 123.18 134.88 121.91C134.93 120.64 132.96 119.91 131.83 118.21C131.123 117.163 130.524 116.047 130.04 114.88H129.92L119.57 121.18L119.55 121.24Z" fill="#EF6744"/>
<path d="M156.86 126.26C156.73 126.261 156.603 126.219 156.5 126.14C156.25 125.95 150.4 121.47 149.74 116.34C149.65 115.67 149.58 114.97 149.5 114.25C149.11 110.37 148.67 105.97 145.5 103.03C141.56 99.4 135.5 93.2 135.45 93.14C135.337 93.0233 135.276 92.8666 135.278 92.7044C135.281 92.5422 135.348 92.3877 135.465 92.275C135.582 92.1623 135.738 92.1005 135.901 92.1033C136.063 92.1062 136.217 92.1733 136.33 92.29C136.39 92.35 142.41 98.53 146.33 102.13C149.86 105.39 150.33 110.03 150.75 114.13C150.82 114.84 150.89 115.53 150.97 116.19C151.57 120.81 157.2 125.12 157.26 125.19C157.359 125.268 157.432 125.375 157.468 125.496C157.504 125.617 157.502 125.746 157.461 125.866C157.421 125.986 157.344 126.09 157.242 126.164C157.139 126.238 157.016 126.279 156.89 126.28L156.86 126.26Z" fill="white"/>
<path d="M167.05 133.42C166.937 133.42 166.826 133.389 166.73 133.33C166.662 133.288 166.602 133.233 166.555 133.168C166.508 133.103 166.474 133.029 166.456 132.951C166.437 132.873 166.434 132.793 166.447 132.713C166.46 132.634 166.488 132.558 166.53 132.49C166.53 132.49 169.33 127.95 169.79 124.93C170.04 123.24 171.15 117.59 174.89 115.72C177.59 114.37 181.31 109.28 181.35 109.23C181.396 109.164 181.454 109.108 181.522 109.065C181.59 109.022 181.666 108.993 181.745 108.98C181.825 108.967 181.906 108.97 181.984 108.989C182.062 109.008 182.135 109.042 182.2 109.09C182.329 109.186 182.416 109.328 182.442 109.487C182.468 109.645 182.431 109.808 182.34 109.94C182.18 110.16 178.4 115.33 175.43 116.81C172.88 118.09 171.43 121.93 170.99 125.11C170.55 128.29 167.68 132.94 167.56 133.11C167.51 133.202 167.437 133.28 167.347 133.334C167.257 133.389 167.155 133.418 167.05 133.42Z" fill="white"/>
<path d="M129.78 115.33C129.675 115.329 129.572 115.301 129.481 115.248C129.389 115.196 129.313 115.121 129.26 115.03C129.11 114.78 113.98 89.08 112.65 66.75C112.346 62.1234 112.447 57.4792 112.95 52.87C112.96 52.7909 112.985 52.7146 113.025 52.6455C113.065 52.5763 113.118 52.5158 113.181 52.4674C113.244 52.419 113.317 52.3837 113.394 52.3635C113.471 52.3434 113.551 52.3388 113.63 52.35C113.79 52.37 113.936 52.4528 114.036 52.5803C114.135 52.7078 114.18 52.8696 114.16 53.03C113.669 57.563 113.568 62.1298 113.86 66.68C115.18 88.68 130.16 114.16 130.31 114.41C130.39 114.549 130.412 114.715 130.371 114.87C130.33 115.026 130.229 115.159 130.09 115.24C129.998 115.3 129.89 115.331 129.78 115.33Z" fill="#2755A3"/>
<path d="M159.58 103.23H159.51C159.349 103.21 159.202 103.127 159.101 103C159 102.873 158.953 102.711 158.97 102.55C159.367 98.0073 159.424 93.4412 159.14 88.89C158.605 81.3031 157.21 73.8015 154.98 66.53C153.052 59.9653 150.611 53.5623 147.68 47.38C147.637 47.3078 147.609 47.2274 147.599 47.1441C147.589 47.0607 147.595 46.976 147.619 46.8954C147.643 46.8148 147.683 46.74 147.737 46.6757C147.791 46.6114 147.858 46.5589 147.934 46.5216C148.009 46.4843 148.091 46.463 148.175 46.4589C148.259 46.4549 148.343 46.4682 148.421 46.4981C148.5 46.528 148.571 46.5738 148.631 46.6326C148.691 46.6915 148.739 46.7621 148.77 46.84C151.729 53.0851 154.196 59.5514 156.15 66.18C158.408 73.542 159.817 81.138 160.35 88.82C160.64 93.4411 160.583 98.0774 160.18 102.69C160.163 102.838 160.093 102.974 159.982 103.073C159.872 103.173 159.729 103.229 159.58 103.23Z" fill="#2755A3"/>
<path d="M129.54 88.15C129.49 88.1597 129.439 88.1597 129.39 88.15C129.313 88.1303 129.24 88.0953 129.177 88.0473C129.113 87.9993 129.06 87.939 129.02 87.8701C128.98 87.8013 128.954 87.7251 128.944 87.6461C128.933 87.5671 128.939 87.4868 128.96 87.41C128.96 87.3 131.84 76.73 138.38 68.48C143.28 62.32 139.87 54.79 137.38 50.85C135.889 48.1829 134.553 45.4316 133.38 42.61C133.32 42.4614 133.321 42.2952 133.383 42.1474C133.445 41.9996 133.562 41.882 133.71 41.82C133.783 41.7874 133.861 41.7698 133.941 41.7683C134.02 41.7668 134.099 41.7814 134.173 41.8113C134.247 41.8412 134.314 41.8858 134.37 41.9422C134.426 41.9987 134.471 42.066 134.5 42.14C135.687 44.9 137.022 47.5939 138.5 50.21C143.05 57.48 143.37 64.21 139.4 69.21C133.01 77.26 130.22 87.59 130.19 87.69C130.157 87.8329 130.072 87.9586 129.952 88.0434C129.832 88.1281 129.686 88.1661 129.54 88.15Z" fill="#2755A3"/>
<path d="M246.87 70.34H161.42C160.612 70.34 159.838 70.6608 159.267 71.2319C158.696 71.8029 158.375 72.5774 158.375 73.385C158.375 74.1926 158.696 74.9671 159.267 75.5381C159.838 76.1092 160.612 76.43 161.42 76.43H243.82V124.17H188.5C187.694 124.17 186.92 124.49 186.35 125.06C185.78 125.631 185.46 126.404 185.46 127.21C185.46 128.016 185.78 128.789 186.35 129.36C186.92 129.93 187.694 130.25 188.5 130.25H243.82V164.67C243.82 165.478 244.141 166.252 244.712 166.823C245.283 167.394 246.057 167.715 246.865 167.715C247.673 167.715 248.447 167.394 249.018 166.823C249.589 166.252 249.91 165.478 249.91 164.67V73.38C249.915 72.9793 249.84 72.5816 249.69 72.2103C249.539 71.839 249.315 71.5018 249.032 71.2184C248.748 70.935 248.411 70.7113 248.04 70.5605C247.668 70.4096 247.271 70.3346 246.87 70.34Z" fill="#EF6744"/>
<path d="M183.78 153.17C183.12 151.07 183.96 148.71 186.29 146.17C189.04 143.17 195.83 147.6 197.29 148.64V146H197.72C194.84 144.14 188.11 140.53 184.45 144.54C181.45 147.78 180.45 150.94 181.45 153.93C183.45 160.23 193.85 163.46 197.32 164.37V161.86C192.95 160.61 185.19 157.6 183.78 153.17Z" fill="#2755A3"/>
<path d="M244.89 139.52C240.99 141.311 237.275 143.482 233.8 146H197.33V167.76H233.8V161.1C235.64 157.99 241.63 148.27 246.34 144.98C254.83 138.98 261.45 138.86 261.45 138.86V136.4C261.45 136.4 251.42 136.43 244.89 139.52Z" fill="#2755A3"/>
<path d="M224.91 48.34H246.42V62.52C246.42 64.4216 245.665 66.2453 244.32 67.59C242.975 68.9346 241.152 69.69 239.25 69.69H232.1C230.198 69.69 228.375 68.9346 227.03 67.59C225.685 66.2453 224.93 64.4216 224.93 62.52V48.34H224.91Z" fill="#2755A3"/>
<path d="M246.38 51.02H224.9V52.24H246.38V51.02Z" fill="white"/>
<path d="M246.38 54.31H224.9V55.53H246.38V54.31Z" fill="white"/>
<path d="M265.72 31.13C264.796 31.3295 263.923 31.7187 263.157 32.2729C262.391 32.8272 261.748 33.5345 261.27 34.35C259.71 34.88 257.27 35.75 254.16 36.97C254.675 36.479 255.072 35.8771 255.32 35.21C256.55 31.91 255.01 26.88 255.01 26.88C253.431 27.7305 252.01 28.8469 250.81 30.18C249.424 28.9417 247.701 28.1444 245.86 27.89C244.935 27.8962 244.02 28.0909 243.173 28.4623C242.325 28.8336 241.562 29.3739 240.93 30.05C241.04 29.84 241.14 29.62 241.24 29.41C241.378 29.1952 241.496 28.9675 241.59 28.73C242.357 27.2816 243.219 25.8852 244.17 24.55C244.74 23.76 245.3 23.02 245.86 22.31C246.196 23.1591 246.794 23.8788 247.568 24.3644C248.341 24.8501 249.249 25.0762 250.16 25.01C253.67 24.85 257.68 21.44 257.68 21.44C257.68 21.44 253.89 18.3 250.68 18.61C249.9 18.6972 249.146 18.9386 248.46 19.32C250.03 17.6325 251.739 16.0803 253.57 14.68C254.259 15.2224 255.098 15.5385 255.974 15.5851C256.849 15.6316 257.718 15.4063 258.46 14.94C261.46 13.16 263.46 8.28 263.46 8.28C263.46 8.28 258.64 7.28 255.94 9.05C255.224 9.56031 254.617 10.2076 254.154 10.9543C253.69 11.701 253.38 12.5323 253.24 13.4C251.376 14.7747 249.635 16.3106 248.04 17.99C248.071 17.6574 248.071 17.3226 248.04 16.99C247.83 13.48 244.38 9.51 244.38 9.51C244.38 9.51 241.29 13.35 241.64 16.51C241.812 17.5148 242.2 18.4703 242.776 19.311C243.353 20.1517 244.105 20.8575 244.98 21.38C244.38 22.13 243.76 22.93 243.15 23.8C242.54 24.67 242.15 25.25 241.7 25.99C241.695 25.9703 241.695 25.9497 241.7 25.93C240.81 22.53 236.65 19.31 236.65 19.31C236.65 19.31 234.65 23.14 235.19 26.16C234.008 26.2563 232.868 26.6408 231.87 27.28C231.146 27.8519 230.547 28.5655 230.108 29.3771C229.67 30.1886 229.402 31.0812 229.32 32L229.17 31.31C229.147 31.0595 229.1 30.8117 229.03 30.57C228.749 28.9532 228.576 27.3197 228.51 25.68C228.51 24.68 228.51 23.77 228.51 22.87C229.295 23.3329 230.207 23.5349 231.115 23.4468C232.022 23.3588 232.878 22.9853 233.56 22.38C236.24 20.1 237.33 14.96 237.33 14.96C237.33 14.96 232.4 14.79 230.05 16.96C229.482 17.4978 229.032 18.1484 228.73 18.87C228.939 16.577 229.34 14.3056 229.93 12.08C230.802 12.0803 231.653 11.813 232.369 11.314C233.084 10.8151 233.629 10.1086 233.93 9.29C235.24 6.03 233.81 0.959999 233.81 0.959999C233.81 0.959999 229.38 3.11 228.33 6.17C227.824 7.86875 228.011 9.6986 228.85 11.26C228.221 13.4917 227.786 15.7735 227.55 18.08C227.381 17.79 227.187 17.5156 226.97 17.26C224.66 14.61 219.5 13.58 219.5 13.58C219.5 13.58 219.4 18.51 221.64 20.84C222.39 21.5325 223.283 22.0524 224.256 22.3634C225.228 22.6743 226.257 22.7687 227.27 22.64C227.27 23.64 227.27 24.64 227.27 25.64C227.27 26.53 227.38 27.4 227.48 28.26C227.464 28.2642 227.446 28.2642 227.43 28.26C224.64 26.11 219.43 26.11 219.43 26.11C219.43 26.11 220.29 30.97 222.95 32.81C223.767 33.3166 224.682 33.646 225.634 33.777C226.587 33.9079 227.556 33.8374 228.48 33.57C228.948 35.3747 229.557 37.14 230.3 38.85C227 37.76 222.19 39.25 222.19 39.25C222.19 39.25 224.45 43.63 227.53 44.6C228.426 44.8405 229.361 44.8936 230.278 44.756C231.196 44.6183 232.074 44.2929 232.86 43.8C233.781 45.3287 234.782 46.8074 235.86 48.23H237.42C237.377 45.6417 237.534 43.054 237.89 40.49C238.289 39.7249 238.446 38.8564 238.34 38C238.845 35.5143 239.616 33.0903 240.64 30.77C240.913 31.8494 241.575 32.7898 242.5 33.41C241.35 34.61 239.89 36.47 239.67 38.41C239.61 39.358 239.748 40.308 240.075 41.1998C240.402 42.0915 240.911 42.9055 241.57 43.59C240.108 44.9175 238.904 46.5043 238.02 48.27H239.39C240.504 46.3051 242.025 44.6005 243.85 43.27C244.032 43.1592 244.206 43.0355 244.37 42.9C245.722 41.9624 247.166 41.165 248.68 40.52L251.22 39.45C251.245 40.3055 251.527 41.1335 252.03 41.8258C252.533 42.5181 253.234 43.0424 254.04 43.33C257.32 44.61 262.37 43.13 262.37 43.13C262.37 43.13 260.17 38.71 257.11 37.69C256.8 37.5926 256.482 37.5223 256.16 37.48C258.41 36.61 260.22 35.97 261.5 35.53C261.929 36.2391 262.556 36.8066 263.305 37.1622C264.053 37.5177 264.889 37.6456 265.71 37.53C269.2 37.13 272.98 33.47 272.98 33.47C272.98 33.47 268.91 30.6 265.72 31.13ZM236.14 46.68C235.106 45.2636 234.152 43.7914 233.28 42.27C233.131 41.4174 232.723 40.6315 232.11 40.02C230.99 37.7434 230.118 35.353 229.51 32.89C229.848 33.1487 230.218 33.3637 230.61 33.53C230.441 35.4091 230.845 37.2954 231.77 38.94C232.331 39.6771 233.038 40.2909 233.847 40.7433C234.655 41.1957 235.548 41.4771 236.47 41.57C236.28 43.21 236.17 44.91 236.14 46.68ZM237.47 36.08C236.641 34.9471 235.594 33.9916 234.39 33.27C234.47 33.22 234.55 33.19 234.63 33.13C235.856 32.2666 236.879 31.1475 237.63 29.85C238.136 30.2458 238.686 30.5814 239.27 30.85C238.54 32.5458 237.938 34.294 237.47 36.08ZM248.13 39.45C247.289 39.8092 246.468 40.2131 245.67 40.66C245.67 40.54 245.73 40.42 245.75 40.29C245.933 38.1985 245.59 36.0944 244.75 34.17C246.379 34.1711 247.991 33.8304 249.48 33.17C249.325 34.9113 249.793 36.651 250.8 38.08C251.006 38.096 251.214 38.096 251.42 38.08L248.13 39.45Z" fill="#2755A3"/>
<path d="M207.11 122.43H189.73L183.26 80.61H212.68L207.11 122.43Z" fill="#F1C4D9"/>
<path d="M207.11 123H189.73C189.584 123.001 189.442 122.949 189.332 122.853C189.221 122.758 189.149 122.625 189.13 122.48L182.66 80.66C182.645 80.5746 182.65 80.487 182.675 80.4038C182.699 80.3207 182.742 80.2441 182.8 80.18C182.856 80.1118 182.926 80.0567 183.005 80.0187C183.085 79.9807 183.172 79.9606 183.26 79.96H212.68C212.767 79.9607 212.853 79.9798 212.932 80.016C213.012 80.0522 213.082 80.1046 213.14 80.17C213.196 80.2352 213.238 80.3119 213.262 80.3947C213.287 80.4776 213.293 80.5646 213.28 80.65L207.72 122.47C207.698 122.617 207.625 122.751 207.513 122.848C207.401 122.945 207.258 122.999 207.11 123ZM190.25 121.78H206.58L211.99 81.18H183.99L190.25 121.78Z" fill="white"/>
<path d="M204.79 88.4C204.704 88.3999 204.618 88.3821 204.539 88.3477C204.46 88.3133 204.389 88.263 204.33 88.2C204.216 88.0857 204.153 87.9311 204.153 87.77C204.153 87.6089 204.216 87.4543 204.33 87.34L206.87 85.07C206.927 85.0048 206.997 84.9523 207.075 84.9161C207.153 84.8799 207.239 84.8608 207.325 84.8601C207.412 84.8593 207.497 84.8769 207.576 84.9117C207.655 84.9465 207.726 84.9977 207.784 85.062C207.842 85.1262 207.885 85.202 207.911 85.2843C207.938 85.3666 207.946 85.4535 207.937 85.5394C207.927 85.6252 207.899 85.708 207.855 85.7823C207.81 85.8565 207.751 85.9205 207.68 85.97L205.14 88.25C205.043 88.3367 204.92 88.3893 204.79 88.4Z" fill="#EF6744"/>
<path d="M202.78 108.88C202.655 108.882 202.532 108.845 202.429 108.775C202.325 108.705 202.246 108.605 202.201 108.488C202.156 108.372 202.148 108.244 202.179 108.123C202.209 108.001 202.276 107.892 202.37 107.81L204.92 105.54C204.979 105.486 205.049 105.444 205.124 105.417C205.2 105.39 205.28 105.378 205.361 105.383C205.441 105.388 205.519 105.408 205.591 105.444C205.663 105.48 205.727 105.529 205.78 105.59C205.887 105.711 205.942 105.869 205.933 106.03C205.923 106.192 205.85 106.342 205.73 106.45L203.18 108.72C203.071 108.82 202.928 108.877 202.78 108.88Z" fill="#EF6744"/>
<path d="M196.89 88.4C196.789 88.4019 196.689 88.3778 196.6 88.33L193.42 86.59C193.344 86.5553 193.276 86.5053 193.22 86.4432C193.164 86.381 193.121 86.308 193.095 86.2287C193.068 86.1494 193.058 86.0654 193.065 85.9821C193.073 85.8987 193.097 85.8178 193.137 85.7442C193.177 85.6707 193.231 85.6061 193.297 85.5546C193.363 85.503 193.439 85.4656 193.52 85.4445C193.601 85.4235 193.685 85.4193 193.768 85.4323C193.85 85.4453 193.929 85.4752 194 85.52L197.21 87.26C197.326 87.3261 197.417 87.4285 197.47 87.5514C197.522 87.6743 197.532 87.811 197.499 87.9405C197.466 88.07 197.392 88.185 197.287 88.2681C197.183 88.3511 197.054 88.3974 196.92 88.4H196.89Z" fill="#EF6744"/>
<path d="M200.77 101.52C200.668 101.518 200.568 101.491 200.48 101.44L197.27 99.7C197.194 99.6653 197.126 99.6153 197.07 99.5532C197.014 99.491 196.971 99.418 196.945 99.3387C196.918 99.2594 196.908 99.1754 196.915 99.0921C196.923 99.0087 196.947 98.9278 196.987 98.8542C197.027 98.7807 197.081 98.7161 197.147 98.6646C197.213 98.613 197.289 98.5755 197.37 98.5545C197.451 98.5335 197.535 98.5293 197.618 98.5423C197.7 98.5553 197.779 98.5851 197.85 98.63L201.06 100.37C201.131 100.408 201.194 100.459 201.245 100.522C201.297 100.584 201.335 100.656 201.358 100.733C201.381 100.81 201.389 100.891 201.381 100.971C201.373 101.051 201.348 101.129 201.31 101.2C201.257 101.297 201.178 101.377 201.083 101.433C200.989 101.49 200.88 101.52 200.77 101.52Z" fill="#EF6744"/>
<path d="M191.67 96.16C191.509 96.1593 191.354 96.0946 191.24 95.98C191.183 95.9241 191.137 95.8572 191.106 95.7834C191.075 95.7095 191.058 95.6302 191.058 95.55C191.058 95.4698 191.075 95.3905 191.106 95.3166C191.137 95.2428 191.183 95.1759 191.24 95.12L192.98 93.39C193.035 93.326 193.102 93.274 193.178 93.2373C193.253 93.2005 193.336 93.1799 193.42 93.1766C193.504 93.1732 193.588 93.1874 193.666 93.218C193.745 93.2487 193.816 93.2952 193.875 93.3548C193.935 93.4143 193.981 93.4854 194.012 93.5638C194.043 93.6421 194.057 93.726 194.053 93.8101C194.05 93.8942 194.029 93.9767 193.993 94.0524C193.956 94.1281 193.904 94.1954 193.84 94.25L192.1 96C191.984 96.1082 191.829 96.1657 191.67 96.16Z" fill="#EF6744"/>
<path d="M193.68 107.4C193.52 107.4 193.367 107.339 193.25 107.23C193.136 107.114 193.072 106.958 193.072 106.795C193.072 106.632 193.136 106.476 193.25 106.36L194.99 104.62C195.106 104.509 195.26 104.447 195.42 104.447C195.58 104.447 195.734 104.509 195.85 104.62C195.964 104.736 196.028 104.892 196.028 105.055C196.028 105.218 195.964 105.374 195.85 105.49L194.11 107.23C193.993 107.339 193.84 107.4 193.68 107.4Z" fill="#EF6744"/>
<path d="M198.9 115.83H198.84L195.9 115.56C195.82 115.554 195.742 115.532 195.671 115.495C195.6 115.458 195.537 115.407 195.486 115.346C195.435 115.284 195.396 115.213 195.373 115.137C195.35 115.06 195.342 114.98 195.35 114.9C195.374 114.744 195.455 114.602 195.576 114.5C195.698 114.399 195.852 114.346 196.01 114.35L198.95 114.62C199.097 114.639 199.232 114.711 199.33 114.822C199.428 114.934 199.482 115.077 199.482 115.225C199.482 115.373 199.428 115.516 199.33 115.628C199.232 115.739 199.097 115.811 198.95 115.83H198.9Z" fill="#EF6744"/>
<path d="M203.18 120.38C203.088 120.38 202.997 120.359 202.914 120.319C202.831 120.279 202.758 120.222 202.7 120.15C202.602 120.024 202.557 119.864 202.576 119.705C202.595 119.545 202.675 119.4 202.8 119.3L204.8 117.69C204.926 117.592 205.086 117.547 205.245 117.566C205.404 117.585 205.55 117.665 205.65 117.79C205.7 117.851 205.738 117.922 205.761 117.999C205.784 118.075 205.791 118.155 205.783 118.234C205.774 118.313 205.75 118.39 205.712 118.459C205.674 118.529 205.622 118.59 205.56 118.64L203.56 120.25C203.452 120.336 203.318 120.382 203.18 120.38Z" fill="#EF6744"/>
<path d="M204.33 97.27C204.185 97.2716 204.045 97.2209 203.935 97.1272C203.824 97.0335 203.752 96.9031 203.73 96.76L203.31 94.01C203.296 93.9317 203.297 93.8513 203.315 93.7736C203.333 93.696 203.366 93.6228 203.413 93.5583C203.459 93.4938 203.519 93.4395 203.587 93.3985C203.655 93.3576 203.731 93.3309 203.81 93.32C203.889 93.3072 203.971 93.3103 204.049 93.329C204.127 93.3477 204.201 93.3818 204.266 93.4292C204.331 93.4766 204.386 93.5365 204.428 93.6052C204.47 93.674 204.498 93.7504 204.51 93.83L204.93 96.57C204.943 96.6495 204.94 96.7307 204.921 96.809C204.902 96.8873 204.868 96.9611 204.821 97.0262C204.773 97.0913 204.714 97.1463 204.645 97.1882C204.576 97.23 204.5 97.2578 204.42 97.27H204.33Z" fill="#EF6744"/>
<path d="M188.28 89C188.134 88.9992 187.994 88.9463 187.884 88.851C187.774 88.7556 187.701 88.624 187.68 88.48L187.26 85.74C187.237 85.581 187.278 85.4194 187.373 85.2902C187.469 85.161 187.611 85.0747 187.77 85.05C187.848 85.0372 187.928 85.04 188.005 85.0582C188.082 85.0764 188.155 85.1097 188.219 85.1562C188.283 85.2027 188.338 85.2615 188.379 85.329C188.42 85.3966 188.448 85.4717 188.46 85.55L188.89 88.3C188.913 88.459 188.872 88.6206 188.777 88.7498C188.681 88.879 188.539 88.9653 188.38 88.99L188.28 89Z" fill="#EF6744"/>
<path d="M198.03 79.91H199.25C198.9 73.11 198.57 63.32 198.32 54.08C199.11 52 203.18 40.78 201.79 32.45C200.62 25.45 197.39 16.27 195.88 12.2C195.63 11.53 194.88 11.69 194.82 12.43C194.42 16.12 193.02 25.36 192.67 33.21C192.259 39.9881 193.781 46.7435 197.06 52.69C197.32 62.31 197.66 72.75 198.03 79.91Z" fill="#2755A3"/>
<path d="M193.42 68.71C194.23 72.62 195.05 76.49 195.81 79.91H197.06C196.19 76.04 195.24 71.55 194.33 67.08C195.02 62.71 196.09 53.29 193.85 46.94C191.61 40.59 186.94 32.52 184.85 29.02C184.5 28.44 183.85 28.81 183.85 29.57C184.05 33.29 184.56 40.93 185.66 48.65C186.93 57.71 191.88 66.21 193.42 68.71Z" fill="#2755A3"/>
<path d="M201.42 68.81C200.86 72.62 200.32 76.45 199.86 79.91H201.09C201.52 76.67 202.02 73.13 202.54 69.57C204.42 65.82 208.69 56.5 209.14 48.32C209.57 40.32 208.71 29.32 208.27 24.46C208.2 23.65 207.56 23.61 207.34 24.4C206.25 28.3 204.08 36.4 202.34 44.93C200.42 53.86 200.99 64.19 201.42 68.81Z" fill="#2755A3"/>
<path d="M219.97 39.2C218.06 42.2 214.19 48.55 210.61 55.53C206.79 62.96 204.92 73.1 204.25 77.53C203.91 78.33 203.57 79.13 203.25 79.93H204.58C204.75 79.53 204.91 79.14 205.08 78.75C207.62 76.4 213.89 70.05 216.21 62.56C218.43 55.37 220.15 44.61 220.86 39.8C220.95 39 220.36 38.58 219.97 39.2Z" fill="#2755A3"/>
<path d="M193.22 79.91L193.08 79.66C192.54 75.34 190.96 65.87 187.15 61.55C183.34 57.23 176.98 53.15 174.15 51.41C173.68 51.13 173.15 51.92 173.4 52.58C174.6 55.8 177.13 62.37 180.22 68.58C182.596 73.0935 186.026 76.9666 190.22 79.87L193.22 79.91Z" fill="#2755A3"/>
<path d="M210.07 107.1H241.26V112.29C241.26 113.657 240.991 115.011 240.468 116.274C239.944 117.537 239.178 118.684 238.211 119.651C237.244 120.618 236.097 121.384 234.834 121.908C233.571 122.431 232.217 122.7 230.85 122.7H220.48C217.719 122.7 215.071 121.603 213.119 119.651C211.167 117.699 210.07 115.051 210.07 112.29V107.1Z" fill="#F1C4D9"/>
<path d="M228.59 123.3H222.75C221.001 123.304 219.268 122.963 217.651 122.296C216.034 121.63 214.564 120.651 213.326 119.415C212.088 118.18 211.106 116.712 210.435 115.097C209.765 113.481 209.42 111.749 209.42 110V107.1C209.42 106.938 209.484 106.783 209.599 106.669C209.713 106.554 209.868 106.49 210.03 106.49H241.22C241.3 106.49 241.379 106.506 241.453 106.536C241.527 106.567 241.595 106.612 241.651 106.669C241.708 106.725 241.753 106.793 241.784 106.867C241.814 106.941 241.83 107.02 241.83 107.1V110C241.83 113.517 240.437 116.891 237.956 119.383C235.474 121.876 232.107 123.284 228.59 123.3ZM210.68 107.71V110C210.685 113.199 211.959 116.265 214.222 118.525C216.484 120.786 219.551 122.057 222.75 122.06H228.59C231.789 122.057 234.856 120.786 237.118 118.525C239.381 116.265 240.655 113.199 240.66 110V107.69L210.68 107.71Z" fill="white"/>
<path d="M240.42 105.3C238.539 104.214 236.521 103.383 234.42 102.83C233.659 102.628 232.877 102.517 232.09 102.5C232.911 101.895 233.659 101.197 234.32 100.42C235.619 98.7302 236.586 96.8097 237.17 94.76C237.32 94.26 236.58 93.85 236.01 94.1C233.828 95.0293 231.725 96.1329 229.72 97.4C229.912 96.6785 230.016 95.9365 230.03 95.19C230.09 91.36 230.14 87.24 230.16 85.06C230.16 84.61 229.5 84.26 229.23 84.58C227.83 86.3 225.3 89.8 224.68 93.42C222.82 90.27 220.87 86.99 219.81 85.21C219.58 84.82 218.81 84.88 218.81 85.29C218.49 87.53 218.14 92.01 219.62 95.45C220.364 97.158 221.195 98.8268 222.11 100.45C221.865 100.295 221.608 100.161 221.34 100.05C218.788 98.9667 216.396 97.5402 214.23 95.81C213.75 95.43 212.94 95.67 212.99 96.17C213.039 97.6136 213.62 98.9882 214.62 100.03C216.62 101.8 218.62 102.03 220.19 102.79C220.483 102.94 220.766 103.107 221.04 103.29C220.71 103.29 220.37 103.34 220.04 103.39C218.09 103.67 214.43 102.75 212.14 102.08C211.57 101.91 211.14 102.41 211.55 102.75C212.857 103.851 214.244 104.854 215.7 105.75C216.256 106.077 216.842 106.352 217.45 106.57H231.45L231.61 106.5C233.5 105.61 238.28 105.7 240.26 105.78C240.49 105.71 240.62 105.44 240.42 105.3Z" fill="#2755A3"/>
<defs>
<linearGradient id="paint0_linear" x1="52.63" y1="174.58" x2="163.19" y2="110.75" gradientUnits="userSpaceOnUse">
<stop offset="0.07" stop-color="#EF6744"/>
<stop offset="1" stop-color="#F1C4D9"/>
</linearGradient>
</defs>
</svg>
