<?xml version="1.0" standalone="no"?>
<!DOCTYPE svg PUBLIC "-//W3C//DTD SVG 20010904//EN"
 "http://www.w3.org/TR/2001/REC-SVG-20010904/DTD/svg10.dtd">
<svg version="1.0" xmlns="http://www.w3.org/2000/svg"
 width="700.000000pt" height="700.000000pt" viewBox="0 0 700.000000 700.000000"
 preserveAspectRatio="xMidYMid meet">
<metadata>
Created by potrace 1.11, written by Peter Selinger 2001-2013
</metadata>
<g transform="translate(0.000000,700.000000) scale(0.100000,-0.100000)"
fill="#000000" stroke="none">
<path d="M3879 6989 c-139 -15 -233 -100 -258 -231 -9 -51 -7 -383 3 -478 4
-36 9 -81 11 -100 19 -192 82 -452 151 -627 116 -292 303 -534 538 -693 169
-114 493 -240 706 -274 19 -3 44 -7 55 -10 109 -22 303 -38 475 -40 l135 -1
33 -65 c105 -202 218 -530 184 -530 -48 0 -211 71 -300 129 -139 93 -312 164
-488 201 -71 14 -123 18 -254 15 -91 -1 -178 -6 -195 -9 -179 -40 -279 -75
-402 -142 -47 -26 -123 -75 -169 -110 -46 -35 -86 -64 -88 -64 -2 0 -7 12 -11
28 -3 15 -12 41 -20 57 -7 17 -18 44 -25 62 -34 89 -138 114 -200 47 -19 -20
-25 -36 -25 -75 0 -39 -3 -48 -15 -44 -58 17 -363 81 -439 91 -39 5 -84 12
-121 19 -228 42 -684 52 -980 20 -56 -6 -247 -40 -278 -49 -9 -3 -28 -7 -42
-10 -14 -2 -68 -18 -120 -34 -676 -207 -1111 -679 -1382 -1497 -46 -139 -113
-400 -133 -520 -2 -11 -6 -29 -8 -40 -3 -11 -8 -40 -12 -65 -4 -25 -9 -52 -10
-60 -5 -26 -14 -93 -20 -140 -4 -25 -8 -56 -10 -70 -4 -27 -10 -91 -20 -205
-3 -38 -8 -88 -10 -110 -15 -149 -22 -526 -11 -590 32 -193 160 -365 327 -439
118 -52 536 -174 719 -210 14 -3 34 -7 45 -9 11 -3 58 -12 105 -21 47 -9 94
-18 105 -20 11 -2 43 -7 70 -10 28 -4 61 -9 75 -11 29 -6 82 -12 160 -20 30
-4 71 -8 90 -10 152 -19 551 -26 705 -12 74 7 102 10 180 22 17 3 48 7 70 10
74 11 249 56 355 92 570 191 974 604 1240 1268 105 261 216 686 245 935 3 30
8 62 10 70 2 8 7 38 10 65 3 28 7 66 10 85 6 45 18 171 18 187 0 7 16 -3 34
-22 19 -19 44 -36 56 -36 58 -4 84 3 112 31 25 25 30 38 30 78 0 39 -6 55 -35
91 -82 104 -176 174 -318 237 -40 17 -73 36 -74 40 -1 5 37 28 83 52 176 88
311 72 491 -61 268 -197 517 -291 803 -304 196 -8 352 24 510 105 213 109 344
254 466 513 4 9 19 64 34 123 21 85 27 131 27 219 0 62 -3 123 -6 137 -3 13
-8 42 -12 65 -14 97 -97 289 -177 410 -129 193 -313 358 -512 458 l-49 25 -2
104 c-2 108 -11 268 -19 328 -2 19 -7 58 -10 85 -9 71 -42 237 -66 325 -75
275 -220 553 -379 723 -43 46 -178 161 -240 203 -151 104 -433 220 -630 259
-91 18 -196 35 -245 41 -33 3 -69 8 -80 11 -35 8 -507 10 -576 2z"/>
</g>
</svg>
